{"title":"Ondine 2009 DVDRip XviD By SKITTLES","uid":5751100,"size":733794573,"categoryP":"video","categoryS":"movies","magnet":"?xt=urn:btih:893925a31664c371b80f23c310898c6d51a34998&amp;dn=Ondine+2009+DVDRip+XviD+By+SKITTLES&amp;tr=udp%3A%2F%2Ftracker.openbittorrent.com%3A80&amp;tr=udp%3A%2F%2Fopen.demonii.com%3A1337&amp;tr=udp%3A%2F%2Ftracker.coppersurfer.tk%3A6969&amp;tr=udp%3A%2F%2Fexodus.desync.com%3A6969","seeders":0,"leechers":0,"uploader":"SkittlesRG","files":-1,"time":1281397199,"description":"[img]http://leetleech.org/images/05948229973371376807.jpg[/img]\nUser Rating:\n7.0/10   1,918 votes\n\n\nDirector:\nNeil Jordan\n\nWriter:\nNeil Jordan (written by)\n\nRelease Date:\n5 March 2010 (Ireland) \n\nGenre:\nDrama | Romance \n\nTagline:\nThe truth is not what you know. It's what you believe.\n\nPlot:\nThe story of an Irish fisherman who discovers a woman in his fishing net who he believes to be a mermaid. \n\n[img]http://leetleech.org/images/04634794706021374353.jpg[/img]\nVideo\nID                               : 0\nFormat                           : MPEG-4 Visual\nFormat profile                   : Advanced Simple@L5\nFormat settings, BVOP            : Yes\nFormat settings, QPel            : No\nFormat settings, GMC             : No warppoints\nFormat settings, Matrix          : Default (H.263)\nMuxing mode                      : Packed bitstream\nCodec ID                         : XVID\nCodec ID/Hint                    : XviD\nDuration                         : 1h 39mn\nBit rate                         : 851 Kbps\nWidth                            : 608 pixels\nHeight                           : 336 pixels\nDisplay aspect ratio             : 16:9\nFrame rate                       : 25.000 fps\nResolution                       : 8 bits\nColorimetry                      : 4:2:0\nScan type                        : Progressive\nBits/(Pixel*Frame)               : 0.167\nStream size                      : 602 MiB (86%)\nWriting library                  : XviD 1.2.1 (UTC 2008-12-04)\n\nAudio\nID                               : 1\nFormat                           : MPEG Audio\nFormat version                   : Version 1\nFormat profile                   : Layer 3\nMode                             : Joint stereo\nFormat_Settings_ModeExtension    : MS Stereo\nCodec ID                         : 55\nCodec ID/Hint                    : MP3\nDuration                         : 1h 39mn\nBit rate mode                    : Constant\nBit rate                         : 128 Kbps\nChannel(s)                       : 2 channels\nSampling rate                    : 48.0 KHz\nVideo delay                      : 1s 0ms\nStream size                      : 90.6 MiB (13%)\nAlignment                        : Split accross interleaves\nInterleave, duration             : 40 ms (1.00 video frame)\nInterleave, preload duration     : 500 ms\n\nURL: http://www.imdb.com/title/tt1235796/\nTRAILER:","torrent":{"xt":"urn:btih:893925a31664c371b80f23c310898c6d51a34998","amp;dn":"Ondine+2009+DVDRip+XviD+By+SKITTLES","amp;tr":["udp%3A%2F%2Ftracker.openbittorrent.com%3A80","udp%3A%2F%2Fopen.demonii.com%3A1337","udp%3A%2F%2Ftracker.coppersurfer.tk%3A6969","udp%3A%2F%2Fexodus.desync.com%3A6969"],"infoHash":"893925a31664c371b80f23c310898c6d51a34998","infoHashBuffer":{"type":"Buffer","data":[137,57,37,163,22,100,195,113,184,15,35,195,16,137,140,109,81,163,73,152]},"announce":[],"urlList":[]}}